<svg xmlns="http://www.w3.org/2000/svg" width="78" height="78" viewBox="0 0 78 78" fill="none">
  <path d="M57.0937 58.94L45.3792 63.3013C36.0077 66.7903 29.5774 63.849 26.0883 54.4774L25.6522 53.306C25.3818 52.5797 24.7687 52.0076 24.0172 51.7805L18.0231 50.0107C15.3856 49.232 14.4436 46.7016 15.9297 44.3877L19.3071 39.1289C19.683 38.5621 19.7819 37.5382 19.5464 36.9057L19.1103 35.7342C15.6213 26.3626 16.2197 20.8046 27.9342 16.4433L39.6487 12.082C49.0203 8.59302 55.4506 11.5343 58.9396 20.9059L62.4286 30.2775" stroke="#DACBC0" stroke-width="7" stroke-miterlimit="10" stroke-linecap="round" stroke-linejoin="round"/>
  <path d="M44.8282 47.4911L44.8361 47.5121" stroke="#DACBC0" stroke-width="7" stroke-linecap="round" stroke-linejoin="round"/>
  <path d="M41.339 38.1172L41.3468 38.1382" stroke="#CFBCAE" stroke-width="7" stroke-linecap="round" stroke-linejoin="round"/>
  <path d="M37.8488 28.7433L37.8566 28.7643" stroke="#E8B48C" stroke-width="8" stroke-linecap="round" stroke-linejoin="round"/>
</svg>