<svg xmlns="http://www.w3.org/2000/svg" width="14" height="50" viewBox="0 0 14 50" fill="none">
  <path d="M13.6459 5.79242V43.5188C13.6464 43.7173 13.6338 43.9156 13.6082 44.1126C13.454 45.6161 12.7154 47.0112 11.5365 48.0263C10.3575 49.0414 8.8226 49.6037 7.23067 49.6037C5.63874 49.6037 4.10381 49.0414 2.92486 48.0263C1.74592 47.0112 1.00739 45.6161 0.853133 44.1126C0.827529 43.9156 0.814944 43.7173 0.815444 43.5188V5.79242C0.895294 4.23084 1.60525 2.75828 2.79817 1.6799C3.9911 0.601516 5.57554 0 7.22314 0C8.87074 0 10.4552 0.601516 11.6481 1.6799C12.841 2.75828 13.551 4.23084 13.6308 5.79242H13.6459Z" fill="#DACBC0"/>
</svg>