<svg width="73" height="73" viewBox="0 0 73 73" fill="none" xmlns="http://www.w3.org/2000/svg">
<path id="Vector" d="M49.5731 25.2093L53.8436 29.5437L36.2232 46.9025C35.0461 48.0796 33.4979 48.6667 31.9436 48.6667C30.3893 48.6667 28.8259 48.0735 27.6366 46.8873L19.1747 38.687L23.4117 34.3161L31.9071 42.5499L49.5731 25.2093ZM73 36.5C73 56.6267 56.6267 73 36.5 73C16.3733 73 0 56.6267 0 36.5C0 16.3733 16.3733 0 36.5 0C56.6267 0 73 16.3733 73 36.5ZM66.9167 36.5C66.9167 19.7283 53.2718 6.08333 36.5 6.08333C19.7283 6.08333 6.08333 19.7283 6.08333 36.5C6.08333 53.2718 19.7283 66.9167 36.5 66.9167C53.2718 66.9167 66.9167 53.2718 66.9167 36.5Z" fill="#09873C"/>
</svg>
